<svg id="Capa_1" data-name="Capa 1" xmlns="http://www.w3.org/2000/svg" viewBox="0 0 56.39 44"><defs><style>.cls-1{fill:#fff;}</style></defs><title>vuelos</title><path class="cls-1" d="M197.5,169.36H144.65a1.74,1.74,0,0,0,0,3.47H197.5a1.74,1.74,0,1,0,0-3.47Zm0,0" transform="translate(-142.85 -128.83)"/><path class="cls-1" d="M152.82,152.91a1.73,1.73,0,0,0,1.78.58l11.51-3-1,7.51a1.75,1.75,0,0,0,1.72,2,1.82,1.82,0,0,0,.52-.08l6.07-1.87a1.74,1.74,0,0,0,.93-.69L182,146l6.39-2.65a29.91,29.91,0,0,0,8-4.54c3.1-2.72,3-5.18,2.31-6.76s-2.06-3.18-5.62-3.18c-2.45,0-5.7.83-9.67,2.48L158,141.84l-7.32-5.18a1.72,1.72,0,0,0-1.67-.19l-5.05,2.11a1.72,1.72,0,0,0-1,1.19,1.75,1.75,0,0,0,.35,1.52Zm-3.4-12.86,7.32,5.18a1.72,1.72,0,0,0,1.67.19l26.32-10.9a24.08,24.08,0,0,1,8.34-2.21c2,0,2.3.74,2.41,1s.49,1.18-1.39,2.83a26.78,26.78,0,0,1-7,3.94L180.18,143a1.73,1.73,0,0,0-.78.63l-7.58,11.28-2.9.89,1-7.39a1.74,1.74,0,0,0-1.73-2,1.72,1.72,0,0,0-.44.06l-12.92,3.39-7.38-9Zm0,0" transform="translate(-142.85 -128.83)"/></svg>