<svg id="Capa_1" data-name="Capa 1" xmlns="http://www.w3.org/2000/svg" viewBox="0 0 325.39 318.79"><defs><style>.cls-1{fill:#fff;}.cls-2{fill:#ed1c24;}</style></defs><title>circulo antencion turistica</title><circle class="cls-1" cx="158.7" cy="165.29" r="153.5"/><path class="cls-2" d="M130.9,254.68c-2.61.33-7.65-4.22-8.89-13.77a96.9,96.9,0,0,1-.62-11c-1,.58-2.57,1.53-4.47,2.69-4.3,11.5-10.38,24.89-15.09,24.36-5.34-.62-6.29-3.23-5.92-6.45.66-5.75,8.77-12.12,15.92-16.71,2.57-6.2,4.76-12.32,6-16-7.11,2.81-14.81,6.57-15.3,10.71-.17,1.53-2.77-.17-2.48-2.61.86-7.77,17.24-11.16,21.38-13.56,0-3.56,5.87-2.24,6.28.91s-.54,21.42.41,29C129.61,253.86,133.54,254.35,130.9,254.68Zm-20.27-17.94c-6.45,4.42-13.15,10-13.6,14,0,0-.46,3.43,1.78,3.68C102,254.76,106.58,246.08,110.63,236.74Zm10.8-17.29c-.75,2.52-2,6.41-3.64,10.79,1.49-.82,2.68-1.49,3.6-1.94C121.34,225.16,121.39,222.06,121.43,219.45Z" transform="translate(-9.48 -12.54)"/><path class="cls-2" d="M158.68,223.59c-3.35,1-10.67,2.19-17.41,2.73-1,5.83-2.19,12.69-2.19,16.74,0,11,3.6,11.91,1.12,11.91s-6.2-4.84-6.2-13.85a94.58,94.58,0,0,1,1.61-14.52,37,37,0,0,1-5.05-.2,20,20,0,0,1-9.09-3.89c-.87-.58-.42-1.12.16-1a92.1,92.1,0,0,0,14.64,1.36l.25-1.24a63.67,63.67,0,0,0,1.12-6.66c0-4,5-1.4,5,1.7,0,.83-.25,2.52-.58,4.84l-.25,1.4c7.12,0,13.69-.33,16.92-.33C160,222.63,159.72,223.25,158.68,223.59Z" transform="translate(-9.48 -12.54)"/><path class="cls-2" d="M161.79,239.34c-.29.83-2.69,11-9.18,11-5.75,0-9.18-5.17-9.18-9.3,0-5.38,2.72-10.34,4.38-11.83s5.66-1.24,6.95-.62,2.15,2.48,2.15,4.79c0,4.35-2.07,6.62-4.76,6.62a11.79,11.79,0,0,1-3-.54c-.33,4.1,2.19,8.27,4.47,8.27,5.25,0,7.11-8,7.36-8.72S162.08,238.47,161.79,239.34Zm-12.57-.79c5.25,2.24,6.07-6.9,4-6.9S149.63,235,149.22,238.55Z" transform="translate(-9.48 -12.54)"/><path class="cls-2" d="M176.18,244.92c0,6.25.78,5.87.78,7.07s-6.24.34-6.24-6.65a81.34,81.34,0,0,1,1.45-13.28c-1.82,4.59-5,16.58-6.58,18.94a.5.5,0,0,1-.33.42h-.12a1.63,1.63,0,0,1-.5.08c-6,0-5.46-14.06-5.46-14.68s-.45-.46-.45-1.2,6.07-1.16,6.07,1.53c0,.87-.16,5.33-.16,6.7a18.44,18.44,0,0,0,.21,2.85c1.57-5.25,5.12-16.08,8.1-17.78a1,1,0,0,1,.33-.17,1.85,1.85,0,0,1,.46-.08,5.43,5.43,0,0,1,.78,0,2,2,0,0,1,1.16.21c1.32.37,2.61,1.16,2.61,2.15C178.29,233.06,176.18,241.78,176.18,244.92Z" transform="translate(-9.48 -12.54)"/><path class="cls-2" d="M179.77,240.25a15.39,15.39,0,0,1,3.56-9.76c1.24-1.28,4.63-1.57,5.54-.66s2.69,5.58,1.41,5.58-1.74-3.64-2.48-3.64c-2.77,0-4,16.54-.17,16.54,4.55,0,6-7.73,6.45-8.51s1.7-.91,1.24,0-2.81,11.62-8.76,11.62C182.42,251.42,179.77,245.87,179.77,240.25Z" transform="translate(-9.48 -12.54)"/><path class="cls-2" d="M193.34,224.41c0-2.11,1.78-2,3.84-2s4.22,2.48,4.22,4.05C201.4,230.16,193.34,226.48,193.34,224.41Zm13.64,15c-.49,2-3.88,11.71-6.74,11.71h-.08c-5.38,0-6-7.74-6-11.54a72.54,72.54,0,0,1,.46-7.57c0-1.82,5.21-.21,5.21,1.86,0,1.49-.25,4-.25,5.75a21.33,21.33,0,0,0,1.57,8.77c1.7-.91,4.67-8,5-9.06S207.15,238.76,207,239.42Z" transform="translate(-9.48 -12.54)"/><path class="cls-2" d="M217.94,238.14c0,6.33-2.11,13.52-7.52,13.52-4.88,0-6-5.54-6-9.71,0-3.89.74-8.69,3.76-9.35,1-2.77,3.52-3.06,5.46-3.06C216,229.54,217.94,231.86,217.94,238.14Zm-5.37-12.69a7.46,7.46,0,0,1-4.39.25c-1-.34-1-1.29,1.28-2s4.1-3.35,4.88-3.6,2.57.75,3,1.78C217.53,222.26,214.92,224.62,212.57,225.45Zm.74,6.61c-1.32,0-.79,4.35-2.27,5.67,0,5-1.12,11.74,1.44,11.74S217.73,232.06,213.31,232.06Z" transform="translate(-9.48 -12.54)"/><path class="cls-2" d="M237.42,244.92c0,6.25.78,5.87.78,7.07s-6.24.34-6.24-6.65a81.34,81.34,0,0,1,1.45-13.28c-1.82,4.59-5,16.58-6.58,18.94a.5.5,0,0,1-.33.42h-.12a1.63,1.63,0,0,1-.5.08c-6,0-5.46-14.06-5.46-14.68s-.45-.46-.45-1.2,6.08-1.16,6.08,1.53c0,.87-.17,5.33-.17,6.7a18.44,18.44,0,0,0,.21,2.85c1.57-5.25,5.13-16.08,8.1-17.78a1,1,0,0,1,.33-.17,1.85,1.85,0,0,1,.46-.08,5.36,5.36,0,0,1,.78,0,2,2,0,0,1,1.16.21c1.33.37,2.61,1.16,2.61,2.15C239.53,233.06,237.42,241.78,237.42,244.92Z" transform="translate(-9.48 -12.54)"/><path class="cls-2" d="M135.94,273.21c-3.35,1-10.67,2.19-17.41,2.73-1,5.83-2.19,12.69-2.19,16.75,0,11,3.6,11.9,1.12,11.9s-6.21-4.83-6.21-13.85a94.53,94.53,0,0,1,1.62-14.51,36.78,36.78,0,0,1-5.05-.21,20.07,20.07,0,0,1-9.1-3.89c-.86-.58-.41-1.11.17-1a93,93,0,0,0,14.64,1.37l.25-1.24a63.06,63.06,0,0,0,1.11-6.66c0-4,5-1.41,5,1.69,0,.83-.25,2.53-.58,4.84l-.25,1.41c7.11,0,13.69-.33,16.91-.33C137.22,272.26,137,272.88,135.94,273.21Z" transform="translate(-9.48 -12.54)"/><path class="cls-2" d="M135.24,300.75c-2.65,0-5.67-1.82-5.67-6.49,0-.62,0-1.29,0-2l-3.14,7.9a3.14,3.14,0,0,1,.33,1.16c0,1.11-6.2.2-6.2-7.12,0-4.5,1-11.66,1-13.1,0-1-1.15-2.24.67-2.24,2.19,0,4.83,1.24,4.83,2.73s-1.57,6.45-1.57,12.32a20.46,20.46,0,0,0,.46,4.93c.82-1.91,2.73-6.5,3.76-9.81.08-1.52.17-2.85.17-3.3,0-.75.16-1.82,1.15-1.82s4.84.37,4.84,2.4c0,1.32-.66,2.27-.66,8.35C135.28,299.43,136.85,300.75,135.24,300.75Z" transform="translate(-9.48 -12.54)"/><path class="cls-2" d="M154.55,280.9c0,3.43-.87,6.74-2.94,6.74s-3.64-.83-3.64-1.74.71-4.46.71-4.46-4.8,9.55-5.13,15.42c.45,3,1.07,3.81,1.07,4.51,0,1.12-6.78,3.18-6.78-12.78,0-4.22.54-10.38,1.95-10.38,2.77,0,4.05,1.45,4.05,3.19s-.83,3.76-.83,6.9c0,1.53,0,2.86.13,4,1.07-5.41,4.54-14.72,6.45-14.72C151.86,277.59,154.55,277.47,154.55,280.9Z" transform="translate(-9.48 -12.54)"/><path class="cls-2" d="M154.92,274c0-2.11,1.78-2,3.85-2s4.21,2.48,4.21,4.05C163,279.78,154.92,276.1,154.92,274Zm13.65,15c-.5,1.94-3.89,11.7-6.74,11.7h-.09c-5.37,0-6-7.73-6-11.54a74.39,74.39,0,0,1,.45-7.57c0-1.81,5.21-.2,5.21,1.87,0,1.48-.25,4-.25,5.74A21.08,21.08,0,0,0,162.7,298c1.69-.91,4.67-8,5-9.06S168.73,288.38,168.57,289.05Z" transform="translate(-9.48 -12.54)"/><path class="cls-2" d="M172.54,278.17c3,0,7.19-.37,7.19,2.77s-4,7-4.67,7,1-5.83.33-5.83c-3.18,0-6.08,8.06-3.64,8.06,1.08,0,7.4-.08,7.4,3.56s-6.65,9.59-9.09,9.59-4-2.15-2.94-2.15c2,0,7.69-6.12,7.69-7.61,0,0-8.89,1.37-8.89-5.33C165.92,284.66,169.56,278.17,172.54,278.17Z" transform="translate(-9.48 -12.54)"/><path class="cls-2" d="M207,273.21c-3.34,1-10.66,2.19-17.4,2.73-1,5.83-2.2,12.69-2.2,16.75,0,11,3.6,11.9,1.12,11.9s-6.2-4.83-6.2-13.85A94.46,94.46,0,0,1,184,276.23a36.62,36.62,0,0,1-5-.21,20,20,0,0,1-9.1-3.89c-.87-.58-.42-1.11.16-1a93.2,93.2,0,0,0,14.64,1.37l.25-1.24a64.11,64.11,0,0,0,1.12-6.66c0-4,5-1.41,5,1.69,0,.83-.25,2.53-.58,4.84l-.25,1.41c7.12,0,13.69-.33,16.92-.33C208.31,272.26,208.06,272.88,207,273.21Z" transform="translate(-9.48 -12.54)"/><path class="cls-2" d="M191.1,274c0-2.11,1.78-2,3.85-2s4.22,2.48,4.22,4.05C199.17,279.78,191.1,276.1,191.1,274Zm13.65,15c-.5,1.94-3.89,11.7-6.74,11.7h-.08c-5.38,0-6-7.73-6-11.54a72.8,72.8,0,0,1,.46-7.57c0-1.81,5.21-.2,5.21,1.87,0,1.48-.25,4-.25,5.74a21.29,21.29,0,0,0,1.57,8.77c1.69-.91,4.67-8,5-9.06S204.92,288.38,204.75,289.05Z" transform="translate(-9.48 -12.54)"/><path class="cls-2" d="M202.1,289.87a15.44,15.44,0,0,1,3.56-9.76c1.24-1.28,4.63-1.57,5.54-.66s2.69,5.59,1.41,5.59-1.74-3.64-2.48-3.64c-2.77,0-4,16.54-.17,16.54,4.55,0,6-7.74,6.45-8.52s1.7-.91,1.24,0S214.84,301,208.89,301C204.75,301,202.1,295.5,202.1,289.87Z" transform="translate(-9.48 -12.54)"/><path class="cls-2" d="M240.48,286.36c-.21.95-4.26,15.17-7.78,16.42a1.36,1.36,0,0,1-.66.12c-3.88,0-4.83-8.06-5.12-8.06s-1.91,6.28-5.17,6.28-5.92-2.19-5.92-7.94c0-5.42,3-14.26,9.1-14.26,4.26,0,7.28,0,7.28,6,0,.58-1.49,1.08-1.49.17s-.29-4.3-1.82-4.3c-4.05,0-7.65,7.36-7.65,15,0,1.53.17,4,1.41,4s3.84-8.64,3.84-10.8c0-.82,0-2.31,2.48-2.31s3.56,1.16,3.56,2v.66c.12,2.81-.12,10.75,1.24,10.75.87,0,5.42-13.07,5.71-14S240.69,285.33,240.48,286.36Z" transform="translate(-9.48 -12.54)"/><path class="cls-2" d="M205.17,170.06a15.23,15.23,0,0,0-11.73-10.17l-14.54-2.64v-1.13a22.1,22.1,0,0,0,6.49-5.76h4.39a6.54,6.54,0,0,0,6.53-6.53V117.72a28.29,28.29,0,1,0-56.58,0V133a8.72,8.72,0,0,0,6.94,8.52,21.8,21.8,0,0,0,10.47,14.65v1.13l-14.55,2.64a15.23,15.23,0,0,0-11.72,10.17l-.87,2.61-7.41-7.41a2.18,2.18,0,0,1,0-3.08l8.59-8.59-16.13-16.13-9.72,9.71a15.23,15.23,0,0,0,0,21.54l29.41,29.41a15.25,15.25,0,0,0,21.48.07l10.6-9.72-3.31-3.29h46.7ZM192,143.83a2.18,2.18,0,0,1-2.17,2.18H188a21.79,21.79,0,0,0,1.42-4.54,8.3,8.3,0,0,0,2.58-1Zm-2.17-7.13v-7.5a4.33,4.33,0,0,1,0,7.5Zm-43.52,0a4.32,4.32,0,0,1,0-7.5Zm0-14.63v2.48a9.1,9.1,0,0,0-2.18.9v-7.73a23.94,23.94,0,1,1,47.87,0v7.73a8.64,8.64,0,0,0-2.17-.9v-2.48H187.6a23.93,23.93,0,0,1-17-7.06L168,112.46,165.47,115a23.94,23.94,0,0,1-17,7.06Zm4.35,15.23v-11A28.2,28.2,0,0,0,168,118.6a28.18,28.18,0,0,0,17.41,7.74v11a17.31,17.31,0,0,1-2.36,8.71H168v4.35h11.47a17.38,17.38,0,0,1-28.88-13.06Zm23.94,20.76v.1L168,164.69l-6.53-6.53v-.1a21.82,21.82,0,0,0,13.06,0Zm-59.5-14.45,10,10L122.66,156l-10-10Zm38.15,51.44a10.88,10.88,0,0,1-15.38,0l-29.41-29.4a10.88,10.88,0,0,1,0-15.39l1.19-1.2,10,10-.08.08a6.54,6.54,0,0,0,0,9.23L135.11,184a6.49,6.49,0,0,0,4.62,1.91,6.39,6.39,0,0,0,4.53-1.84l.17-.14,10,10Zm4.46-4.09-10-10,2.88-2.59,10,10Zm1.5-10.14-8.48-8.47-9.42,8.52a2.22,2.22,0,0,1-3.07,0l-4.75-4.76,1.55-4.67a10.89,10.89,0,0,1,8.38-7.27l15.21-2.76,9.44,9.43,9.43-9.43,15.21,2.76a10.91,10.91,0,0,1,8.38,7.27l3.13,9.38Z" transform="translate(-9.48 -12.54)"/><path class="cls-2" d="M229,67.67H198.48A6.54,6.54,0,0,0,192,74.19V91.6a6.54,6.54,0,0,0,6.53,6.53h5.82l-2.25,13.13,21-13.13H229a6.54,6.54,0,0,0,6.53-6.53V74.19A6.54,6.54,0,0,0,229,67.67Zm2.17,23.93A2.18,2.18,0,0,1,229,93.78H221.8L208,102.42l1.48-8.64h-11a2.18,2.18,0,0,1-2.17-2.18V74.19A2.17,2.17,0,0,1,198.48,72H229a2.17,2.17,0,0,1,2.17,2.17Z" transform="translate(-9.48 -12.54)"/><rect class="cls-2" x="191.18" y="63.83" width="26.11" height="4.35"/><rect class="cls-2" x="191.18" y="72.53" width="17.41" height="4.35"/><rect class="cls-2" x="212.94" y="72.53" width="4.35" height="4.35"/><path class="cls-2" d="M120.53,120.53l-.77-1.28a1.42,1.42,0,0,0-2-.49l-4.67,2.8a56.61,56.61,0,0,1,71.65-40.49l1.29-4.16a60.93,60.93,0,0,0-77.34,44.39l-3.39-5.65a1.42,1.42,0,0,0-2-.49l-1.28.77a1.42,1.42,0,0,0-.49,2l6.17,10.29a1.42,1.42,0,0,0,2,.49l10.3-6.18A1.42,1.42,0,0,0,120.53,120.53Z" transform="translate(-9.48 -12.54)"/><path class="cls-2" d="M214.92,121.48l2,1.17a1,1,0,0,0,1.42-.35l3.28-5.46A56.62,56.62,0,0,1,212,170.75l3.38,2.74A61.09,61.09,0,0,0,229,135.13a60.37,60.37,0,0,0-3.17-19.38l5.51,3.3a1,1,0,0,0,1.42-.36l1.18-2a1,1,0,0,0-.36-1.42l-11-6.59a1,1,0,0,0-1.42.36l-6.58,11A1,1,0,0,0,214.92,121.48Z" transform="translate(-9.48 -12.54)"/><path class="cls-2" d="M311.9,89.7c.47.78,1,1.6,1.5,2.45,1,1.71,2.22,3.49,3.27,5.41A26.23,26.23,0,0,0,314.43,92c-.5-1-1-2-1.58-3s-1.18-2-1.75-2.9l-3.61-4.24c.05.88,1.22,2.91,3,5.64C310.91,88.21,311.42,88.92,311.9,89.7Z" transform="translate(-9.48 -12.54)"/><path class="cls-2" d="M21,236.57c-.46-1.06-.91-2.11-1.27-3-.61-1.28-1.19-2.5-1.78-3.71s-1.05-2.48-1.61-3.79c-.53-1.48-1.08-2.95-1.58-4.44l-1.38-4.5a5.69,5.69,0,0,0-1.44-1c-.49-1.36-.85-2.68-1.22-4s-.73-2.63-1.11-4a24.66,24.66,0,0,0,.08,5.77c.45,1.83,1.07,3.61,1.6,5.42s1.08,3.62,1.75,5.38l1.87,3.58.95,1.81,1,1.71c.87,2,1.72,3.88,2.56,5.79l2.83,5.65c.44.06,1,.39,1.44.45.28-.51-.34-2.12-1.23-4.06C22,238.67,21.51,237.61,21,236.57Z" transform="translate(-9.48 -12.54)"/><path class="cls-2" d="M66.21,297.45c-2.22-1.65-5.1-4-8.86-6.87-1.25-1.21-2.69-2.6-3.92-3.81-1.89-1.78-2.91-2.33-7.2-6.6l-.75.8c1.55,2.6,4.86,5.87,7.58,8.52,1.51.92,3.15,2.1,4.7,2.92.89,1,1.84,2,2.82,3.06s2,2.15,3.06,3.15c1.44,1,3.11,2.13,4.57,3.05a7.25,7.25,0,0,1,2-.41A16.82,16.82,0,0,0,66.21,297.45Z" transform="translate(-9.48 -12.54)"/><path class="cls-2" d="M334.55,162.76c-.15-1.68-.22-3.38-.46-5l-.52-4.24c-.17-1.39-.36-2.77-.64-4.22-.62-3.18-1.18-6.35-2-9.47-.29-1.3-.56-2.57-.84-3.83s-.64-2.5-.95-3.75c-.67-2.48-1.28-5-2.14-7.46-.22-1.5-.43-3-.7-4.47a26.3,26.3,0,0,0-.15-4.78,28.79,28.79,0,0,0-1.15-5.37q-1.39-3.3-2.77-6.61c-1.83-2.38-1.74,0-.91,5.18-.42.06-.81.26-.87,1.11a19,19,0,0,0,.93,5c-1-2.72-2.12-3.77-3.34-6.05-.34.5-2.53-2.83-1.2,2.24a5.31,5.31,0,0,1-1.36-.88c-1.89-3.79-2.22-2-1.55.81.31,1.41.64,2.8.91,4.18s.43,2.74.61,4l-.17.07c-.46.21-1,.45-.49,3.23l-.59.26c-.72-.59-1.2-.14-1,1.85s1.3,5.45,3.34,11.15c0,.85.07,1.76.1,2.66s0,1.82,0,2.67c-1.42-2.23-1.82,0-1.91,3.34,0,1.66-.13,3.63-.19,5.48a35.47,35.47,0,0,1-.37,4.81c.53,2,.95,6.7,1.58,4.75.56,1,.34,3.38.54,4.94.43,3.66-.13,6.33-.7,5.34a3.25,3.25,0,0,1-.8,2,3.48,3.48,0,0,0-.4,1.3c-.1.65-.12,1.59-.17,3a30.44,30.44,0,0,0-.43,4c0,.62,0,1.21,0,1.75s0,1,0,1.47c.11,1.74.54,2.53,1.25,1.37,0,1.18.09,2.5.15,3.91s0,2.92-.07,4.46a46.74,46.74,0,0,1-1.12,9.14c-.36,2-1.12,4.57-1.94,7.74-1,3.12-2,6.8-3.6,10.69a151.23,151.23,0,0,1-12.19,25,170.41,170.41,0,0,1-16.06,22.15l-3.76,4.32c-1.23,1.31-2.37,2.53-3.4,3.67l-1.47,1.63-1.35,1.41c-.83.89-1.54,1.68-2.09,2.35L266.29,283l-1.88,1.73-3.77,3.47c-1.29.17-1.75,0-5,3.83a53.41,53.41,0,0,0-6.38,4.25c-1.53,1.24-2.49,2.15-2.53,2.77a15.12,15.12,0,0,1-3.3,1.75c.34-.66-.21-.52-1.15,0s-2.33,1.24-3.6,1.94c-.79.59-1.69,1.21-2.67,1.85s-2.08,1.19-3.21,1.8l-3.51,1.82c-1.19.59-2.45,1.1-3.66,1.65L222,311.39l-3.36,1.34c-2.1.87-3.87,1.72-5.11,2.36-8.91,2.73-18.23,5.3-27.66,5.66-7.87,2-15.7,1.94-23.56,1.31-2-.2-4-.32-5.95-.59s-4-.53-6-.76-4.1-.62-6.21-.87-4.25-.63-6.47-.85c.09.44-1.14.52-2.88.22s-4-.83-6.12-1.35A9.27,9.27,0,0,0,125,315.8c-1.57-.56-3.46-1-5.46-1.64a49.48,49.48,0,0,1-12.37-4.78c-5.45-2.94-13-6.68-20.42-11.35s-14.62-10.25-19.43-15.9c-1.37-1.05-2.77-2.66-4.16-4a16.53,16.53,0,0,0-3.52-2.89c-1.83-2.31-4-4.91-6.32-8L51.51,265c-.63-.78-1.21-1.63-1.85-2.47s-1.3-1.7-2-2.58l-1-1.32-1-1.38c-.09-.62,0-1-.07-1.65-.89-1.63-1.91-3.26-2.78-5s-1.73-3.43-2.56-5.08c-1.33-2.25-2.39-4.36-3.66-6.64-.39-.68-.72-1.4-1.17-2.33-1.27-2.59-.78-3.16-2.32-5.87-1.05-1.8-2-3.34-3.2-5.39-.37-1-.69-2.28-1.06-3.54a15.78,15.78,0,0,0-1-5.11c-.58-2.07-1.55-4.42-2.44-7-2.49-5-2.29-11-3.74-15.74,0-2.15-.1-4.27,0-6.4a18.11,18.11,0,0,0,0-4.18c-.15-1.59-.2-3.28-.24-4.71a18.55,18.55,0,0,0-1,2.75l-.27-4.1L20,175.22l0-2.06L19.93,169c0-1.37.07-2.74.1-4.12.77,1.41,1-.5,1.25-3.19a53.64,53.64,0,0,1,1.14-8c.57-2.56,1.32-6.65.69-7.49.17-1.15.36-2.37.55-3.62s.38-2.54.69-3.81c1.32-5.06,2.84-10.33,4.64-12.82,2.74-6.76.91-4.57,1.93-8.61,1.64-4.93,2.12-2.32,4.08-7.93,2.63-8.72,7.82-15.66,13.51-22.15-.36,1.28-2.22,3.77-2.88,5.47.22.26.71-.17,1.36-1s1.44-2.11,2.41-3.42,2-2.78,2.91-4.11A30.48,30.48,0,0,1,55,81.11c3.57-4.84,7.86-8.64,12.09-12.53,1.09-1,2.2-1.87,3.29-2.85s2.14-2,3.28-3c2.25-2,4.4-4.18,6.71-6.48l3.26-1.9c1.08-.59,2.19-1.14,3.34-1.74s2.14-1.29,3.15-1.95l3.16-1.92c-.11-.14-.24-.33-.65-.89a35.88,35.88,0,0,1,11-5.62c-2,1.41-1.7,1.72-.52,1.29a33.75,33.75,0,0,0,5.43-2.42,24.7,24.7,0,0,0-2.83.14c1.27-.73,2.61-1.48,4-2.11s2.7-1.13,3.91-1.56c2.4-.91,4.36-1.22,4.94-.85a18.51,18.51,0,0,0,4.22-1.35l3.89-1.62c1.39-.28,2.71-.64,3.94-.81s2.32-.33,3.19-.39c1.35-.09,2.12,0,2,.58-.47.09-.95.19-1.42.3-1.59.36-3.2.67-4.66,1.06l-3.86,1.11c-1.08.32-1.9.58-2.34.75s-.49.28,0,.21c2.34.08,6.81-1.52,11.22-2.56a44.86,44.86,0,0,1,6.16-1.27c1.8-.24,3.21-.32,3.94.06a15.53,15.53,0,0,0,4.34-.77,12,12,0,0,1,4-.78c2.36.51,9.47-.61,14.48-.39a12.8,12.8,0,0,0,3.39.58c1.46.17,3.16.33,4.81.47.83.07,1.65.12,2.42.23s1.49.24,2.13.36a6.28,6.28,0,0,1,2.61.9c1.63.07,3.16.31,4.64.5s2.9.37,4.25.66l3.94.85,1.89.43,1.82.53c2.42.7,4.77,1.36,7.11,2.23l3.58,1.21,3.68,1.41A55.34,55.34,0,0,1,220.19,44c2,.9,3.79,2,5.6,3,.91.52,1.83,1,2.74,1.55l2.78,1.7c.95.58,2,1.12,3,1.75s2.06,1.28,3.18,1.94c-.58.09-.94.25-1.53.39l2.82,2.1,2.7,2.28a30,30,0,0,1,2.5,1.86,26,26,0,0,0,5.07,3.1c4.58,3.81,6.44,4.5,6.2,3.19-1.47-1.67-3.07-3.6-4.78-5.44,1.79,1.25,1.66.12,4.33,2.28.4-.15,1-.15,1.4-.3,1.66.64,3.06,1.22,4.67,2,.91.43,8.35,7,14.61,14.36,1.55,1.85,3.16,3.64,4.48,5.46l2,2.56c.64.81,1.23,1.58,1.73,2.33a36.63,36.63,0,0,0,3.64,4.83c-1.1-1.69-2.16-3.41-3.22-5.13a24.45,24.45,0,0,0-1.21-2.56A15.09,15.09,0,0,0,281,84.46c-1.13-2-2.58-4.16-3.85-6.11-1.79-2.31-3.85-4.12-5.31-5.7s-2.59-2.7-2.69-3.56l-2.71-2.7c-.93-1-2-1.85-3-2.83s-2.1-2-3.23-3-2.29-1.94-3.44-2.93-2.35-2-3.56-2.88L249.56,52,246,49.38c-1.16-.86-2.29-1.7-3.43-2.44.83.05-2-1.29-3-2A39.19,39.19,0,0,0,235,42.14l-2.72-1.52c-.95-.49-1.94-.94-2.92-1.42-2-.94-3.94-1.91-5.82-2.67s-3.58-1.61-5-2.22l-4.75-1.73c-1.57-.61-3.21-1-4.81-1.56s-3.17-1.28-4.68-1.75c-1.66-1.05-5.51-1.6-7.27-2.29-1.67-.35-3.26-.73-4.87-1l-4.91-.8A135.2,135.2,0,0,0,157,22.74c-2.75.3-5.52.51-8.26.88l-4.11.61-2.06.31-2,.41-4.32.66c-1.45.2-2.87.55-4.3.83l-1.29.32c-.16-.24-.66-.28-1.36-.2-.35,0-.75.11-1.19.19l-1.35.38a30.44,30.44,0,0,1-5.09,1.29c-2.29.7-5,1.6-7.84,2.39-2.75,1-5.61,1.82-8.06,2.64-8.45,4-15.26,7.77-21.18,10.23-1.84,1.14-3.69,2.29-5.51,3.48l-5.84,4c-1.95,1.37-3.81,2.88-5.67,4.27-1.08.64-2,1.25-2.92,1.85l-2.73,1.8-1,.93a8.52,8.52,0,0,1-.65-2.4l3.45-3c1.15-1,2.38-1.93,3.55-2.91s2.36-2,3.62-3l3.76-2.84L77,44.62c.81-.36,1.62-.74,2.5-1.21s1.83-1,2.93-1.72l1.75-1.16c.65-.4,1.34-.84,2.08-1.34.45-.76.89-1.56,1.34-2.37,2.35-1.47,4.56-2.63,6.8-3.89,1.13-.61,2.23-1.3,3.45-1.9l3.85-1.94c.63-.56,1.28-1.12,2.17-1.8,3.62-1.5,7.18-3.11,11.15-4.45,1.47-.14,2.67-.2,4.13-.31.18.42,4.21-.62,4.38-.19l3-1,3.27-1c0,.53,1.34.33,3.1-.15s4-1.08,5.85-1.62c2.69-.59,5.15-.9,7.87-1.31l-.19-.85c2-.35,5.08-.65,8.22-1,1.57-.19,3.17-.23,4.69-.27s3-.06,4.22,0a62.32,62.32,0,0,0,7.49.16c2.69.07,5.11.23,5.81.69,2.21,0,4.4.27,6.6.42,1.1.09,2.2.14,3.3.26l3.28.39c1.54.26,3.05.47,4.5.8l4.22,1c2.73.6,5.19,1.47,7.42,2.09s4.14,1.29,5.76,1.68a12,12,0,0,0,3.87.51c-.38-.8-3.19-1.88-6.35-3-1.59-.56-3.29-1-4.81-1.47s-2.87-.94-3.82-1.28c-3.56-.68-7.11-1.41-10.7-1.85A111.39,111.39,0,0,0,158,12.79a4.83,4.83,0,0,0-1.73-.25c-.82,0-1.87.11-3.07.25s-2.58.33-4,.55-3,.6-4.59.91a2.92,2.92,0,0,0-2-.4c-.51,0-1.1.07-1.74.14s-1.34.25-2.08.41c-1.49.32-3.15.73-4.86,1.16s-3.46,1-5.15,1.5l-2.74.69c-1.52.31-3.11.7-4.71,1.06s-3.22.7-4.72,1.16l-3.84,1.27c-1.28.43-2.57.85-3.82,1.36l-3.78,1.47c-1.26.48-2.52,1-3.75,1.55-2.09.91-4.19,1.79-6.26,2.75l-6.12,3.08c-1.4.7-2.78,1.57-4.21,2.38s-2.85,1.63-4.18,2.45l-6.38,4.1L68,44.79A166.51,166.51,0,0,0,47.5,63.15l-3.77,4-3.57,4.16a24.93,24.93,0,0,0-1.87,2c-.63.83-1.31,1.77-2,2.82S34.77,78.37,34,79.62l-2.42,4.19c-.56.84-1.12,1.69-1.7,2.55S28.76,88.14,28.22,89s-1.07,1.79-1.6,2.68-1.06,1.77-1.51,2.66c-.14.87-.28,1.75-.51,2.89l-1.48,3.08c-.46,1-.87,2.11-1.31,3.15a10.76,10.76,0,0,0,.13,1.26,25.59,25.59,0,0,0,.09,3,61.34,61.34,0,0,0,3.36-6.14c1.08-2,2.09-4.24,3.41-7.18.85-1.46,1.84-3.18,2.68-4.64.56-.66,1.07-1.36,1.82-2.23-.92,1.73-1,2.7-.66,2.83s1.25-.52,2.63-1.83a19.19,19.19,0,0,0,.34,3.24,76.72,76.72,0,0,0-7.3,13.61c-2.06,4.69-3.84,9.32-5.92,13.43-.63,2-1.43,4-2,6a34.73,34.73,0,0,0-1.2,5.57c-.52,1.56-1,3.42-1.44,5a149.86,149.86,0,0,0-4.43,33.86l-1.33.1c-.41.72-.47,3-.39,6,.11,1.54.27,3.29.44,5.16.1.94.16,1.91.29,2.9s.28,2,.42,3c.41.48.8.69,1.22,1.16.05.9.1,1.77.16,2.64s.18,1.72.27,2.58c.18,1.72.36,3.43.54,5.22a9.4,9.4,0,0,1-.13,1.45l-.22.07c-.4,3.54,1.63,10.45,4.44,19.43.47,1.74,1.13,3.42,1.67,5.1s1.07,3.35,1.73,4.88c.76,2.09,1.52,4.26,2.32,6.38s1.73,4.16,2.54,6.1c.75,1.65,1.65,3.23,2.46,4.85s1.62,3.24,2.56,4.8a28,28,0,0,0,2.24,4.77c.94,1.69,2.07,3.29,2.78,4.69.92,1.32,1.76,2.67,2.74,3.92l2.84,3.74,1.41,1.86,1.49,1.77,3,3.54c1.16,1.6,2.27,2.89,3.5,4.44.71.68,1.4,1.37,2.62,2.63s3,3.08,5.82,6.05c2.52,2.24,5.3,4.09,7,6l4.41,3.23,4.55,3a31.54,31.54,0,0,0,5.2,4.65,54.31,54.31,0,0,0,6.81,4.46c1.14.22,2.46.67,3.89.91l6,3.07,6.08,2.92c2,.92,4.14,1.75,6.22,2.62,1.5.85,1.84,1.21,2,1.53s.29.58,1.32,1.1a44.52,44.52,0,0,0,12,2.86,162.24,162.24,0,0,0,19.88,3.74c1.66.39,3.32.77,5.29,1.1a20.6,20.6,0,0,0,5.9,1,52.91,52.91,0,0,0,7.57-.42l6.78.18c2.26,0,4.52-.08,6.78-.12a17.08,17.08,0,0,0,8.38.33c2.29-.09,3-.67,5.13-1.61a148.16,148.16,0,0,0,23.53-5.73c2.72-.78,5.07-1.74,7.74-2.67.78-.3,1.6-.54,2.63-1,.54.45,2.13,0,3.93-.68.91-.33,1.86-.72,2.76-1.07s1.72-.75,2.4-1c.33-.56.42-1,.72-1.56l3.39-1.63c1.13-.52,2.19-1.16,3.28-1.73,2.15-1.19,4.37-2.29,6.5-3.65l.65.89c6.73-4.18,5.87-2.52,12.41-6.23l.3.35a26.18,26.18,0,0,0-1.25,3c-4.22,3.05-.69,1.92-1.05,2.83l3.93-2.79c1.3-.94,2.53-2,3.81-2.95L271,301l3.28-2.74,3.26-2.76,3.1-2.87c.13-1.06.29-2.09.39-3.13l1.07-1,4.2-3.83c.7-.64,1.42-1.27,2.1-1.93l2-2c.88-1,1.9-2.2,2.88-3.32a22.3,22.3,0,0,1,2.56-2.77l2.68-3.38c.87-1.13,1.67-2.29,2.49-3.43l2.44-3.39c.75-1.17,1.5-2.33,2.26-3.49.53-.82,1.53-2.19,2.7-4.08s2.63-4.22,4.16-6.93,3.22-5.73,4.75-9c.78-1.65,1.64-3.31,2.39-5l2.24-5.27A164.83,164.83,0,0,0,328.79,210c.85-3,1.4-5.76,1.87-8,.23-1.1.44-2.08.62-2.91s.25-1.51.33-2c.55-3.18,1.13-6.37,1.42-9.59l.48-2.86c.17-1,.32-1.9.42-2.86l.7-5.76c.16-2.66.19-5.63.24-8.29C334.82,166.15,334.66,164.45,334.55,162.76Zm-15.05-3.21c.06.59.09,1.19.12,1.79,0-.73-.1-1.49-.19-2.26s-.16-1.57-.21-2.37Zm.15,2.12,0,.67Zm7.48-9.58c0-.55,0-1.13,0-1.72a6.29,6.29,0,0,1,0,1.72c-.31.64-.64,1-.94,1.62C326.46,152.8,326.69,151.89,327.13,152.09Zm-12.5,56.46c-.21.84-.47,1.74-.8,2.71C314.11,210.36,314.37,209.46,314.63,208.55ZM41,76.66c.38-.54.77-1.06,1.18-1.58-.7.94-1.4,1.9-2.11,2.88Zm8,.72a47.76,47.76,0,0,0-2.69,4c.34-.58.65-1.17,1-1.75s.75-1.15,1.16-1.74a43.66,43.66,0,0,1,2.88-3.75l.82-.56q-.48.47-1,1C50.51,75.36,49.79,76.28,49,77.38ZM138.4,32.65l.54-.19c2-.32,4.63-1.17,6-.91C146.59,31.41,143.06,31.8,138.4,32.65ZM282.88,275.36c.42-.28.83-.54,1.21-.76A4.31,4.31,0,0,1,282.88,275.36Z" transform="translate(-9.48 -12.54)"/></svg>